<?xml version="1.0" standalone="no"?><!DOCTYPE svg PUBLIC "-//W3C//DTD SVG 1.1//EN" "http://www.w3.org/Graphics/SVG/1.1/DTD/svg11.dtd"><svg t="1689909549836" class="icon" viewBox="0 0 1024 1024" version="1.1" xmlns="http://www.w3.org/2000/svg" p-id="2565" xmlns:xlink="http://www.w3.org/1999/xlink" width="200" height="200"><path d="M928 512H96a96 96 0 0 0 0 192h832a96 96 0 0 0 0-192z m32 256H64a32 32 0 0 0-32 32v32a128 128 0 0 0 128 128h704a128 128 0 0 0 128-128v-32a32 32 0 0 0-32-32zM117.28 448h789.44c69.14 0 109.24-87.8 69.64-151.76C896 166.4 719.1 64.2 512 64c-207.08 0.2-384 102.4-464.36 232.22C8 360.18 48.14 448 117.28 448zM768 224a32 32 0 1 1-32 32 32 32 0 0 1 32-32zM512 160a32 32 0 1 1-32 32 32 32 0 0 1 32-32z m-256 64a32 32 0 1 1-32 32 32 32 0 0 1 32-32z" p-id="2566"></path></svg>